<svg xmlns="http://www.w3.org/2000/svg" xmlns:xlink="http://www.w3.org/1999/xlink" width="100%" height="100%" viewBox="0 0 100 100">
    <g transform="scale(1.18) translate(-10, 0)">
        <path fill="hsla(189, 100%, 47%, 0.5)" d="M 16.805 86.279 Q 9.641 71.76 18.854 66.33 T 21.278 52.85 T 34.37 42.183 T 66.566 37.14 T 72.502 51.178 T 80.53 68.657 T 73.063 85.143 T 16.791 86.273 Z" />
        <path stroke="hsl(235, 19%, 37%)" stroke-width=".1" fill="hsl(235, 19%, 37%)" d="M40.5 10 l-2,0.4 l1,-1.8 l1.1,0 z" />
        <path stroke="hsl(240, 4%, 65%)" stroke-width=".1" fill="hsl(240, 4%, 65%)" d="M40.5 10 L42.9,10 L40.6,8.5 Z" />
        <path stroke="hsl(227, 7%, 50%)" stroke-width=".1" fill="hsl(227, 7%, 50%)" d="M40.5 10 L38.5,10.3 L39,15.7 L41.6,13.3 Z" />
        <path stroke="hsl(354, 12%, 84%)" stroke-width=".1" fill="hsl(354, 12%, 84%)" d="M40.5 10 L42.9,10 L53.9,21 L53.5,23 L51.6,24 L49.5,25.8 L47.6,27.5 L43.3,18.5 Z" />
        <path stroke="hsl(4, 19%, 72%)" stroke-width=".1" fill="hsl(4, 19%, 72%)" d="M39 15.7 L41.6,13.3 L43.3,18.5 L42.1,19.6 Z" />
        <path stroke="hsl(29, 25%, 75%)" stroke-width=".1" fill="hsl(29, 25%, 75%)" d="M54 21 L56.4,25.7 L53.5,23 Z" />
        <path stroke="hsl(21, 18%, 85%)" stroke-width=".1" fill="hsl(21, 18%, 85%)" d="M39.6 22 L41.1,33.6 L47.6,27.5 L43.3,18.5 Z" />
        <path stroke="hsl(228, 10%, 49%)" stroke-width=".1" fill="hsl(228, 10%, 49%)" d="M38.5 10.3 L33.3,25.4 L38.8,21.5 L39.3,20 L39,15.7 Z" />
        <path stroke="hsl(220, 9%, 26%)" stroke-width=".1" fill="hsl(220, 9%, 26%)" d="M33.3 25.4 L37,28 L38.8,21.5 Z" />
        <path stroke="hsl(252, 2%, 45%)" stroke-width=".1" fill="hsl(252, 2%, 45%)" d="M39.3 20 L41.3,35 L37,28.1" />
        <path stroke="hsl(26, 7%, 62%)" stroke-width=".1" fill="hsl(26, 7%, 62%)" d="M39 15.7 L42.1,19.6 L39.6,22 L39.3,20 Z" />
        <path stroke="hsl(206, 15%, 21%)" stroke-width=".1" fill="hsl(206, 15%, 21%)" d="M33.3 25.4 L31.3,33 L35,30.8 L34.2,30.3 L33.7,29 L34.7,27.4 L36,27.4 Z" />
        <path stroke="hsl(30, 55%, 4%)" stroke-width=".1" fill="hsl(30, 55%, 4%)" d="M36 27.4 L34.7,27.4 L33.7,29 L34.2,30.3 L35,30.8 L36,31 L37,30.2 L37.3,29 L37,28 Z" />
        <path stroke="hsl(189, 9%, 30%)" stroke-width=".1" fill="hsl(189, 9%, 30%)" d="M31.3 33 L39.7,54 L41.3,35 L37,28 L37.3,29 L37,30.2 L36,31 L35,30.8 Z" />
        <path stroke="hsl(240, 3%, 13%)" stroke-width=".1" fill="hsl(240, 3%, 13%)" d="M31.3 33 L30.7,39.7 L29.8,43 L39.7,54 Z" />
        <path stroke="hsl(201, 15%, 18%)" stroke-width=".1" fill="hsl(201, 15%, 18%)" d="M29.8 43 L33.3,53 L39.7,54 Z" />
        <path stroke="hsl(0, 12%, 10%)" stroke-width=".1" fill="hsl(0, 12%, 10%)" d="M29.8 43 L27.8,52 L33.3,53 Z" />
        <path stroke="hsl(220, 4%, 15%)" stroke-width=".1" fill="hsl(220, 4%, 15%)" d="M27.8 52 L19.4,77.4 L26.3,80.4 L39.7,54 Z" />
        <path stroke="hsl(218, 6%, 24%)" stroke-width=".1" fill="hsl(218, 6%, 24%)" d="M39.7 54 L30.7,86.8 L26.1,81.4 L26.3,80.4 Z" />
        <path stroke="hsl(312, 3%, 68%)" stroke-width=".1" fill="hsl(312, 3%, 68%)" d="M19.4 77.4 L25,87.3 L26.3,80.4 Z" />
        <path stroke="hsl(0, 9%, 13%)" stroke-width=".1" fill="hsl(0, 9%, 13%)" d="M19.4 77.4 L20.3,88.4 L12.8,86.2 L25.4,59.3 Z" />
        <path stroke="hsl(220, 2%, 24%)" stroke-width=".1" fill="hsl(220, 2%, 24%)" d="M19.4 77.4 L25,87.3 L30.7,86.8 L34.4,91 L20.3,88.4 Z" />
        <path stroke="hsl(225, 5%, 49%)" stroke-width=".1" fill="hsl(225, 5%, 49%)" d="M26 81.4 L30.7,86.8 L25,87.3 Z" />
        <path stroke="hsl(230, 3%, 36%)" stroke-width=".1" fill="hsl(230, 3%, 36%)" d="M41.3 35 L47,50.2 L39.7,54 Z" />
        <path stroke="hsl(6, 9%, 46%)" stroke-width=".1" fill="hsl(6, 9%, 46%)" d="M39.7 54 L47.6,64 L47,50.2 Z" />
        <path stroke="hsl(354, 8%, 50%)" stroke-width=".1" fill="hsl(354, 8%, 50%)" d="M39.7 54 L47.6,64 L46.5,73 Z" />
        <path stroke="hsl(218, 4%, 39%)" stroke-width=".1" fill="hsl(218, 4%, 39%)" d="M39.7 54 L46.5,73 L30.7,86.8 Z" />
        <path stroke="hsl(6, 28%, 79%)" stroke-width=".1" fill="hsl(6, 28%, 79%)" d="M41 33.6 L47.6,27.5 L49.5,25.8 L48.6,27 L47.8,30.2 L47.5,35.8 L48.5,41.2 L41.3,35 Z" />
        <path stroke="hsl(16, 26%, 55%)" stroke-width=".1" fill="hsl(16, 26%, 55%)" d="M65.4 58 L71.8,56.3 L75.7,59.8 Z" />
        <path stroke="hsl(48, 7%, 43%)" stroke-width=".1" fill="hsl(48, 7%, 43%)" d="M75.7 59.8 L65.3,68.5 L60.4,66 Z" />
        <path stroke="hsl(35, 18%, 19%)" stroke-width=".1" fill="hsl(35, 18%, 19%)" d="M75.7 59.8 L69.5,70.7 L65.3,68.5 Z" />
        <path stroke="hsl(48, 6%, 17%)" stroke-width=".1" fill="hsl(48, 6%, 17%)" d="M75.7 59.8 L74.1,68 L69.5,70.7 Z" />
        <path stroke="hsl(72, 6%, 32%)" stroke-width=".1" fill="hsl(72, 6%, 32%)" d="M75.7 59.8 L78.5,61 L74.1,68 Z" />
        <path stroke="hsl(32, 18%, 25%)" stroke-width=".1" fill="hsl(32, 18%, 25%)" d="M75.7 59.8 L81.1,55.6 L78.5,61 Z" />
        <path stroke="hsl(9, 28%, 41%)" stroke-width=".1" fill="hsl(9, 28%, 41%)" d="M75.7 59.8 L71.8,56.3 L81.1,55.6 Z" />
        <path stroke="hsl(72, 2%, 47%)" stroke-width=".1" fill="hsl(72, 2%, 47%)" d="M60.4 66 L46.5,73 L69.5,70.7 Z" />
        <path stroke="hsl(192, 2%, 43%)" stroke-width=".1" fill="hsl(192, 2%, 43%)" d="M46.5 73 L52.2,77 L69.5,70.7 Z" />
        <path stroke="hsl(250, 3%, 58%)" stroke-width=".1" fill="hsl(250, 3%, 58%)" d="M46.5 73 L41.4,83.5 L52.2,77 Z" />
        <path stroke="hsl(195, 5%, 45%)" stroke-width=".1" fill="hsl(195, 5%, 45%)" d="M46.5 73 L41.4,83.5 L30.7,86.8 Z" />
        <path stroke="hsl(225, 6%, 58%)" stroke-width=".1" fill="hsl(225, 6%, 58%)" d="M41.4 83.5 L30.7,86.8 L34.4,91 Z" />
        <path stroke="hsl(202, 5%, 44%)" stroke-width=".1" fill="hsl(202, 5%, 44%)" d="M52.2 77 L46.1,91 L34.4,91 L41.4,83.5 Z" />
        <path stroke="hsl(215, 7%, 47%)" stroke-width=".1" fill="hsl(215, 7%, 47%)" d="M52.2 77 L63,87 L69.5,70.7 Z" />
        <path stroke="hsl(218, 4%, 35%)" stroke-width=".1" fill="hsl(218, 4%, 35%)" d="M52.2 77 L46.1,91 L63,87 Z" />
        <path stroke="hsl(168, 6%, 31%)" stroke-width=".1" fill="hsl(168, 6%, 31%)" d="M69.5 70.7 L68.3,83.3 L74.1,68 Z" />
        <path stroke="hsl(208, 11%, 35%)" stroke-width=".1" fill="hsl(208, 11%, 35%)" d="M69.5 70.7 L68.2,85 L63,87 Z" />
        <path stroke="hsl(231, 12%, 23%)" stroke-width=".1" fill="hsl(231, 12%, 23%)" d="M46 91 L63.1,88.7 L68.2,85 L63,87 Z" />
        <path stroke="hsl(3, 34%, 48%)" stroke-width=".1" fill="hsl(3, 34%, 48%)" d="M81 55.6 L75.3,54.4 L71.8,56.3 Z" />
        <path stroke="hsl(39, 28%, 80%)" stroke-width=".1" fill="hsl(39, 28%, 80%)" d="M81 55.6 L81.2,52.7 L79.6,53 L79.6,55.3" />
        <path stroke="hsl(2, 31%, 51%)" stroke-width=".1" fill="hsl(2, 31%, 51%)" d="M79.6 53 L75.3,54.4 L79.6,55.3 Z" />
        <path stroke="hsl(3, 26%, 60%)" stroke-width=".1" fill="hsl(3, 26%, 60%)" d="M48.5 41.2 L48.8,30.8 L47.8,30.2 L47.5,35.8 Z" />
        <path stroke="hsl(2, 35%, 53%)" stroke-width=".1" fill="hsl(2, 35%, 53%)" d="M47.8 30.2 L48.8,30.8 L49.3,27.7 L48.5,27.4 Z" />
        <path stroke="hsl(358, 43%, 43%)" stroke-width=".1" fill="hsl(358, 43%, 43%)" d="M48.5 27.4 L49.3,27.7 L49.9,26.8 L49.7,25.5 L49.5,25.8 L48.6,27 Z" />
        <path stroke="hsl(26, 40%, 80%)" stroke-width=".1" fill="hsl(26, 40%, 80%)" d="M49.8 26 L53.8,27.4 L51.1,24.4 L49.7,25.5 Z" />
        <path stroke="hsl(26, 40%, 80%)" stroke-width=".1" fill="hsl(26, 40%, 80%)" d="M50 26.8 L50.8,28 L49.2,28 L49.3,27.7 Z" />
        <path stroke="hsl(26, 40%, 80%)" stroke-width=".1" fill="hsl(26, 40%, 80%)" d="M51.6 25 L55.1,26.3 L53.4,24.7 L51.8,24 L51.6,24 L51.1,24.4 Z" />
        <path stroke="hsl(26, 40%, 80%)" stroke-width=".1" fill="hsl(26, 40%, 80%)" d="M56.4 25.7 L57.9,28 L53.5,24.8 L53.7,23 Z" />
        <path stroke="hsl(6, 27%, 50%)" stroke-width=".1" fill="hsl(6, 27%, 50%)" d="M53.5 23 L53.7,23 L53.5,24.8 L53.4,24.7 L51.8,23.9" />
        <path stroke="hsl(26, 39%, 80%)" stroke-width=".1" fill="hsl(26, 39%, 80%)" d="M49 29 L51.4,30.7 L48.8,30.8 Z" />
        <path stroke="hsl(26, 39%, 80%)" stroke-width=".1" fill="hsl(26, 39%, 80%)" d="M48.7 32.2 L50.2,33.2 L50.2,34 L48.7,34.2 Z" />
        <path stroke="hsl(26, 39%, 80%)" stroke-width=".1" fill="hsl(26, 39%, 80%)" d="M48.6 36 L50.6,37.4 L48.6,38 Z" />
        <path stroke="hsl(26, 39%, 80%)" stroke-width=".1" fill="hsl(26, 39%, 80%)" d="M48.5 39.7 L50.6,41.4 L48.6,41.5 L48.5,41.2 Z" />
        <path stroke="hsl(0, 33%, 77%)" stroke-width=".1" fill="hsl(0, 33%, 77%)" d="M81.2 52.7 L79.1,50.6 L77.9,50.6 L77.9,53.6 L79.6,53 Z" />
        <path stroke="hsl(0, 44%, 66%)" stroke-width=".1" fill="hsl(0, 44%, 66%)" d="M78 50.6 L74.9,51.6 L77.9,53.6 Z" />
        <path stroke="hsl(4, 39%, 52%)" stroke-width=".1" fill="hsl(4, 39%, 52%)" d="M75 51.6 L73,54.8 L75.3,54.4 L77.9,53.6 Z" />
        <path stroke="hsl(3, 36%, 53%)" stroke-width=".1" fill="hsl(3, 36%, 53%)" d="M75.3 54.4 L71.8,56.3 L65.8,57.4 L65.1,56.3 Z" />
        <path stroke="hsl(7, 25%, 57%)" stroke-width=".1" fill="hsl(7, 25%, 57%)" d="M71.8 56.3 L65.8,57.4 L59.1,57.2 L65.4,58" />
        <path stroke="hsl(26, 39%, 80%)" stroke-width=".1" fill="hsl(26, 39%, 80%)" d="M65.8 57.4 L65,56 L64.6,57.3 Z" />
        <path stroke="hsl(1, 46%, 62%)" stroke-width=".1" fill="hsl(1, 46%, 62%)" d="M64.8 56.6 L58,57 L59.1,57.2 L64.6,57.3 Z" />
        <path stroke="hsl(9, 40%, 54%)" stroke-width=".1" fill="hsl(9, 40%, 54%)" d="M75 51.6 L72,53.6 L67.6,55.8 L73,54.8 Z" />
        <path stroke="hsl(26, 39%, 80%)" stroke-width=".1" fill="hsl(26, 39%, 80%)" d="M80.4 52 L80.3,49.5 L79.6,50 L79.5,51 Z" />
        <path stroke="hsl(26, 39%, 80%)" stroke-width=".1" fill="hsl(26, 39%, 80%)" d="M78.2 50.6 L77.2,49.4 L76.1,49.5 L77.5,50.8 L77.9,50.6 Z" />
        <path stroke="hsl(26, 39%, 80%)" stroke-width=".1" fill="hsl(26, 39%, 80%)" d="M76.4 51 L74.5,50 L74.9,51.6 Z" />
        <path stroke="hsl(26, 39%, 80%)" stroke-width=".1" fill="hsl(26, 39%, 80%)" d="M74 52.2 L71.5,51.6 L72.8,53 Z" />
        <path stroke="hsl(26, 39%, 80%)" stroke-width=".1" fill="hsl(26, 39%, 80%)" d="M71.8 53.7 L70.1,52.5 L70.7,54.3 Z" />
        <path stroke="hsl(26, 39%, 80%)" stroke-width=".1" fill="hsl(26, 39%, 80%)" d="M68.8 55.3 L67.5,54.6 L67.8,55.8 Z" />
        <path stroke="hsl(26, 39%, 80%)" stroke-width=".1" fill="hsl(26, 39%, 80%)" d="M63 56.7 L62.2,55.2 L61.9,56.8 Z" />
        <path stroke="hsl(26, 39%, 80%)" stroke-width=".1" fill="hsl(26, 39%, 80%)" d="M60.2 57 L59.6,56 L59.5,57 Z" />
        <path stroke="hsl(13, 27%, 57%)" stroke-width=".1" fill="hsl(13, 27%, 57%)" d="M70.7 54.3 L69.2,53.8 L67.5,54.6 L68.8,55.3 Z" />
        <path stroke="hsl(4, 41%, 52%)" stroke-width=".1" fill="hsl(4, 41%, 52%)" d="M67.5 54.6 L62.8,56.3 L63.1,56.7 L64.8,56.6 L65,56 L65.1,56.3 L67.6,55.8 L67.8,55.8" />
        <path stroke="hsl(0, 36%, 67%)" stroke-width=".1" fill="hsl(0, 36%, 67%)" d="M69.2 53.8 L66,54 L67.5,54.6 Z" />
        <path stroke="hsl(6, 44%, 56%)" stroke-width=".1" fill="hsl(6, 44%, 56%)" d="M66 54 L59.6,55.4 L56.1,56.8 L58,57 L59.5,57 L59.6,56 L60.2,57 L61.9,56.8 L62.2,55.2 L62.8,56.3 L67.5,54.6 Z" />
        <path stroke="hsl(5, 37%, 66%)" stroke-width=".1" fill="hsl(5, 37%, 66%)" d="M69.2 53.8 L67.7,53.6 L66.2,52.2 L59.6,55.4 L66,54 Z" />
        <path stroke="hsl(2, 37%, 74%)" stroke-width=".1" fill="hsl(2, 37%, 74%)" d="M66.2 52.2 L61.7,43 L61.9,47.2 L63.5,50.2 L58.9,50.2 Z" />
        <path stroke="hsl(3, 44%, 60%)" stroke-width=".1" fill="hsl(3, 44%, 60%)" d="M62 47.2 L60.4,44.5 L58.9,50.2 L58,56 L59.6,55.4 L66.2,52.2 L58.9,50.2 L63.5,50.2" />
        <path stroke="hsl(5, 42%, 48%)" stroke-width=".1" fill="hsl(5, 42%, 48%)" d="M59 50.2 L53,46.6 L58,56 Z" />
        <path stroke="hsl(5, 48%, 42%)" stroke-width=".1" fill="hsl(5, 48%, 42%)" d="M53 46.6 L52.6,48.3 L54.9,56 L56.1,56.8 L58,56 Z" />
        <path stroke="hsl(1, 47%, 46%)" stroke-width=".1" fill="hsl(1, 47%, 46%)" d="M60.4 44.5 L55.4,38 L52.6,41.6 L54.9,47.8 L58.9,50.2 Z" />
        <path stroke="hsl(2, 49%, 45%)" stroke-width=".1" fill="hsl(2, 49%, 45%)" d="M52.6 41.6 L50.6,41.4 L52.6,48.3 L53,46.6 L54.9,47.8 Z" />
        <path stroke="hsl(1, 41%, 54%)" stroke-width=".1" fill="hsl(1, 41%, 54%)" d="M52.6 41.6 L50.6,37.4 L48.6,38 L48.5,39.7 L50.6,41.4 Z" />
        <path stroke="hsl(6, 55%, 38%)" stroke-width=".1" fill="hsl(6, 55%, 38%)" d="M55.4 38 L50.2,33.2 L50.6,37.4 L52.6,41.6 Z" />
        <path stroke="hsl(0, 44%, 27%)" stroke-width=".1" fill="hsl(0, 44%, 27%)" d="M50.2 33.2 L50.2,34 L48.7,34.2 L48.6,36 L50.6,37.4 Z" />
        <path stroke="hsl(0, 44%, 27%)" stroke-width=".1" fill="hsl(0, 44%, 27%)" d="M53.2 27.2 L52.4,35.2 L50.2,33.2 L48.7,32.2 L48.8,30.8 L51.4,30.7 L49.1,29 L49.2,28 L50.8,28 L49.9,26.8 L49.8,26 Z" />
        <path stroke="hsl(0, 44%, 27%)" stroke-width=".1" fill="hsl(0, 44%, 27%)" d="M55 26.3 L53.8,27.4 L51.6,25 Z" />
        <path stroke="hsl(6, 40%, 52%)" stroke-width=".1" fill="hsl(6, 40%, 52%)" d="M55 26.3 L56.6,29.3 L57.1,27.4 L53.5,24.8 Z" />
        <path stroke="hsl(3, 53%, 30%)" stroke-width=".1" fill="hsl(3, 53%, 30%)" d="M56.6 29.3 L55.4,38 L53.2,27.2 L53.8,27.4 L55.1,26.3 Z" />
        <path stroke="hsl(1, 56%, 35%)" stroke-width=".1" fill="hsl(1, 56%, 35%)" d="M53.2 27.2 L52.4,35.2 L55.4,38 Z" />
        <path stroke="hsl(358, 44%, 47%)" stroke-width=".1" fill="hsl(358, 44%, 47%)" d="M61.7 43 L60.5,41 L57.6,40.8 L60.4,44.5 L61.9,47.2 Z" />
        <path stroke="hsl(9, 34%, 61%)" stroke-width=".1" fill="hsl(9, 34%, 61%)" d="M60.5 41 L60,37 L58.2,32.4 L57,27.7 L56.6,29.3 L56.6,29.8 L58.5,33.5 L59.3,40.8 Z" />
        <path stroke="hsl(1, 45%, 48%)" stroke-width=".1" fill="hsl(1, 45%, 48%)" d="M58 40.8 L58.7,35.4 L59.3,40.8 Z" />
        <path stroke="hsl(26, 39%, 80%)" stroke-width=".1" fill="hsl(26, 39%, 80%)" d="M56.3 31.6 L58.7,33.6 L56.6,29.8 Z" />
        <path stroke="hsl(2, 52%, 40%)" stroke-width=".1" fill="hsl(2, 52%, 40%)" d="M56.3 31.6 L58.4,33.3 L58.5,33.5 L58.7,35.4 L58.1,40.8 L57.6,40.8 L55.4,38 Z" />
        <path stroke="hsl(26, 39%, 80%)" stroke-width=".1" fill="hsl(26, 39%, 80%)" d="M58.8 36.3 L60.7,37.6 L59,38.4 Z" />
        <path stroke="hsl(26, 39%, 80%)" stroke-width=".1" fill="hsl(26, 39%, 80%)" d="M57 28 L58.3,29 L56.6,29.3" />
        <text transform="rotate(-35)" transform-origin="50 60" x="80" y="60" font-size="15" fill="white">
            A!
        </text>
        <path stroke="hsl(223, 4%, 36%)" stroke-width=".1" fill="hsl(223, 4%, 36%)" d="M41.3 35 L48.5,41.2 L47,50.2 Z" />
        <path stroke="hsl(9, 42%, 74%)" stroke-width=".1" fill="hsl(9, 42%, 74%)" d="M48.5 41.2 L53.5,55.2 L47,50.2 Z" />
        <path stroke="hsl(3, 40%, 66%)" stroke-width=".1" fill="hsl(3, 40%, 66%)" d="M47 50.2 L53.5,55.2 L47.6,64 Z" />
        <path stroke="hsl(15, 32%, 71%)" stroke-width=".1" fill="hsl(15, 32%, 71%)" d="M53.5 55.2 L56.1,56.8 L47.6,64 Z" />
        <path stroke="hsl(28, 10%, 63%)" stroke-width=".1" fill="hsl(28, 10%, 63%)" d="M47.6 64 L56.1,56.8 L60.4,66 L46.5,73 Z" />
        <path stroke="hsl(8, 21%, 71%)" stroke-width=".1" fill="hsl(8, 21%, 71%)" d="M56 56.8 L65.4,58 L60.4,66 Z" />
        <path stroke="hsl(27, 13%, 57%)" stroke-width=".1" fill="hsl(27, 13%, 57%)" d="M65.4 58 L75.7,59.8 L60.4,66 Z" />
        <path stroke="hsl(5, 40%, 47%)" stroke-width=".1" fill="hsl(5, 40%, 47%)" d="M50.6 41.4 L54.9,56 L53.5,55.2 L48.6,41.5 " />
    </g>
</svg>